<svg width="70" height="20" viewBox="0 0 70 20" fill="none" xmlns="http://www.w3.org/2000/svg">
<path d="M7 13.0625L3.39062 15.25L4.34766 11.1484L1.17578 8.38672L5.35938 8.03125L7 4.17578L8.64062 8.03125L12.8242 8.38672L9.65234 11.1484L10.6094 15.25L7 13.0625Z" fill="#F5A623"/>
<path d="M21 13.0625L17.3906 15.25L18.3477 11.1484L15.1758 8.38672L19.3594 8.03125L21 4.17578L22.6406 8.03125L26.8242 8.38672L23.6523 11.1484L24.6094 15.25L21 13.0625Z" fill="#F5A623"/>
<path d="M35 13.0625L31.3906 15.25L32.3477 11.1484L29.1758 8.38672L33.3594 8.03125L35 4.17578L36.6406 8.03125L40.8242 8.38672L37.6523 11.1484L38.6094 15.25L35 13.0625Z" fill="#F5A623"/>
<path d="M49 13.0625L45.3906 15.25L46.3477 11.1484L43.1758 8.38672L47.3594 8.03125L49 4.17578L50.6406 8.03125L54.8242 8.38672L51.6523 11.1484L52.6094 15.25L49 13.0625Z" fill="#F5A623"/>
<path d="M63 11.9961L65.1875 13.3086L64.6133 10.8203L66.5547 9.125L63.9844 8.90625L63 6.55469V11.9961ZM68.8242 8.38672L65.6523 11.1484L66.6094 15.25L63 13.0625L59.3906 15.25L60.3477 11.1484L57.1758 8.38672L61.3594 8.03125L63 4.17578L64.6406 8.03125L68.8242 8.38672Z" fill="#F5A623"/>
</svg>
