<svg width="28" height="18" viewBox="0 0 28 18" fill="none" xmlns="http://www.w3.org/2000/svg">
<path d="M18.9805 10.2305C20.0742 10.2305 21.2656 10.3867 22.5547 10.6992C23.8438 11.0117 25.0352 11.5195 26.1289 12.2227C27.2227 12.9258 27.7695 13.7266 27.7695 14.625V17.7305H20.2695V14.625C20.2695 12.9062 19.4492 11.4609 17.8086 10.2891C18.082 10.25 18.4727 10.2305 18.9805 10.2305ZM5.44531 10.6992C6.73438 10.3867 7.92578 10.2305 9.01953 10.2305C10.1133 10.2305 11.3047 10.3867 12.5938 10.6992C13.8828 11.0117 15.0547 11.5195 16.1094 12.2227C17.2031 12.9258 17.75 13.7266 17.75 14.625V17.7305H0.230469V14.625C0.230469 13.7266 0.777344 12.9258 1.87109 12.2227C2.96484 11.5195 4.15625 11.0117 5.44531 10.6992ZM11.5977 6.65625C10.8945 7.39844 10.0352 7.76953 9.01953 7.76953C8.00391 7.76953 7.125 7.39844 6.38281 6.65625C5.64062 5.91406 5.26953 5.03516 5.26953 4.01953C5.26953 3.00391 5.64062 2.125 6.38281 1.38281C7.125 0.640625 8.00391 0.269531 9.01953 0.269531C10.0352 0.269531 10.8945 0.640625 11.5977 1.38281C12.3398 2.125 12.7109 3.00391 12.7109 4.01953C12.7109 5.03516 12.3398 5.91406 11.5977 6.65625ZM21.6172 6.65625C20.875 7.39844 19.9961 7.76953 18.9805 7.76953C17.9648 7.76953 17.0859 7.39844 16.3438 6.65625C15.6016 5.91406 15.2305 5.03516 15.2305 4.01953C15.2305 3.00391 15.6016 2.125 16.3438 1.38281C17.0859 0.640625 17.9648 0.269531 18.9805 0.269531C19.9961 0.269531 20.875 0.640625 21.6172 1.38281C22.3594 2.125 22.7305 3.00391 22.7305 4.01953C22.7305 5.03516 22.3594 5.91406 21.6172 6.65625Z" fill="#027A71"/>
</svg>
