<svg width="19" height="28" viewBox="0 0 19 28" fill="none" xmlns="http://www.w3.org/2000/svg">
<path d="M11.875 5.85547C11.1719 5.85547 10.5664 5.62109 10.0586 5.15234C9.58984 4.64453 9.35547 4.05859 9.35547 3.39453C9.35547 2.69141 9.58984 2.10547 10.0586 1.63672C10.5664 1.12891 11.1719 0.875 11.875 0.875C12.5781 0.875 13.1641 1.12891 13.6328 1.63672C14.1406 2.10547 14.3945 2.69141 14.3945 3.39453C14.3945 4.05859 14.1406 4.64453 13.6328 5.15234C13.1641 5.62109 12.5781 5.85547 11.875 5.85547ZM16.8555 12.4766V10.25H18.7305V27.7695H16.8555V15.0547C15.8789 14.8594 14.9609 14.5078 14.1016 14C13.2422 13.4531 12.5 12.8281 11.875 12.125L11.1133 15.875L13.75 18.3945V27.7695H11.2305V20.2695L8.65234 17.75L6.36719 27.7695H3.73047C3.73047 27.7695 3.78906 27.4375 3.90625 26.7734C4.0625 26.1094 4.23828 25.2305 4.43359 24.1367C4.66797 23.0039 4.92188 21.7734 5.19531 20.4453C5.46875 19.1172 5.72266 17.7891 5.95703 16.4609C6.23047 15.0938 6.48438 13.8242 6.71875 12.6523C6.95312 11.4805 7.14844 10.5039 7.30469 9.72266C7.46094 8.94141 7.55859 8.47266 7.59766 8.31641C7.71484 7.73047 7.98828 7.28125 8.41797 6.96875C8.88672 6.65625 9.35547 6.5 9.82422 6.5C10.293 6.5 10.7227 6.61719 11.1133 6.85156C11.543 7.04687 11.875 7.33984 12.1094 7.73047L13.3984 9.72266C13.75 10.3867 14.2188 10.9531 14.8047 11.4219C15.4297 11.8906 16.1133 12.2422 16.8555 12.4766ZM4.31641 15.4062L5.95703 6.85156L4.55078 6.55859C3.84766 6.40234 3.20312 6.51953 2.61719 6.91016C2.07031 7.30078 1.73828 7.84766 1.62109 8.55078L0.625 13.4141C0.585938 13.7656 0.664062 14.0977 0.859375 14.4102C1.05469 14.6836 1.30859 14.8398 1.62109 14.8789L4.31641 15.4062Z" fill="#027A71"/>
</svg>
