<svg width="21" height="21" viewBox="0 0 21 21" fill="none" xmlns="http://www.w3.org/2000/svg">
<path d="M10.5 2.30723C13.1506 2.30723 13.512 2.30723 14.5964 2.30723C15.5602 2.30723 16.0422 2.54819 16.4036 2.66868C16.8855 2.90964 17.247 3.03012 17.6084 3.39157C17.9699 3.75301 18.2108 4.11446 18.3313 4.59639C18.4518 4.95783 18.5723 5.43976 18.6928 6.40362C18.6928 7.48795 18.6928 7.72892 18.6928 10.5C18.6928 13.2711 18.6928 13.512 18.6928 14.5964C18.6928 15.5602 18.4518 16.0422 18.3313 16.4036C18.0904 16.8855 17.9699 17.247 17.6084 17.6084C17.247 17.9699 16.8855 18.2108 16.4036 18.3313C16.0422 18.4518 15.5602 18.5723 14.5964 18.6928C13.512 18.6928 13.2711 18.6928 10.5 18.6928C7.72892 18.6928 7.48795 18.6928 6.40362 18.6928C5.43976 18.6928 4.95783 18.4518 4.59639 18.3313C4.11446 18.0904 3.75301 17.9699 3.39157 17.6084C3.03012 17.247 2.78916 16.8855 2.66868 16.4036C2.54819 16.0422 2.42771 15.5602 2.30723 14.5964C2.30723 13.512 2.30723 13.2711 2.30723 10.5C2.30723 7.72892 2.30723 7.48795 2.30723 6.40362C2.30723 5.43976 2.54819 4.95783 2.66868 4.59639C2.90964 4.11446 3.03012 3.75301 3.39157 3.39157C3.75301 3.03012 4.11446 2.78916 4.59639 2.66868C4.95783 2.54819 5.43976 2.42771 6.40362 2.30723C7.48795 2.30723 7.8494 2.30723 10.5 2.30723ZM10.5 0.5C7.72892 0.5 7.48795 0.5 6.40362 0.5C5.31928 0.5 4.59639 0.740965 3.99398 0.981928C3.39157 1.22289 2.78916 1.58434 2.18675 2.18675C1.58434 2.78916 1.34337 3.27109 0.981928 3.99398C0.740965 4.59639 0.620482 5.31928 0.5 6.40362C0.5 7.48795 0.5 7.8494 0.5 10.5C0.5 13.2711 0.5 13.512 0.5 14.5964C0.5 15.6807 0.740965 16.4036 0.981928 17.006C1.22289 17.6084 1.58434 18.2108 2.18675 18.8133C2.78916 19.4157 3.27109 19.6566 3.99398 20.0181C4.59639 20.259 5.31928 20.3795 6.40362 20.5C7.48795 20.5 7.8494 20.5 10.5 20.5C13.1506 20.5 13.512 20.5 14.5964 20.5C15.6807 20.5 16.4036 20.259 17.006 20.0181C17.6084 19.7771 18.2108 19.4157 18.8133 18.8133C19.4157 18.2108 19.6566 17.7289 20.0181 17.006C20.259 16.4036 20.3795 15.6807 20.5 14.5964C20.5 13.512 20.5 13.1506 20.5 10.5C20.5 7.8494 20.5 7.48795 20.5 6.40362C20.5 5.31928 20.259 4.59639 20.0181 3.99398C19.7771 3.39157 19.4157 2.78916 18.8133 2.18675C18.2108 1.58434 17.7289 1.34337 17.006 0.981928C16.4036 0.740965 15.6807 0.620482 14.5964 0.5C13.512 0.5 13.2711 0.5 10.5 0.5Z" fill="#176060"/>
<path d="M10.5 5.31928C7.60844 5.31928 5.31928 7.60844 5.31928 10.5C5.31928 13.3916 7.60844 15.6807 10.5 15.6807C13.3916 15.6807 15.6807 13.3916 15.6807 10.5C15.6807 7.60844 13.3916 5.31928 10.5 5.31928ZM10.5 13.8735C8.69277 13.8735 7.12651 12.4277 7.12651 10.5C7.12651 8.69277 8.57229 7.12651 10.5 7.12651C12.3072 7.12651 13.8735 8.57229 13.8735 10.5C13.8735 12.3072 12.3072 13.8735 10.5 13.8735Z" fill="#176060"/>
<path d="M15.8012 6.40362C16.4666 6.40362 17.006 5.8642 17.006 5.1988C17.006 4.53339 16.4666 3.99398 15.8012 3.99398C15.1358 3.99398 14.5964 4.53339 14.5964 5.1988C14.5964 5.8642 15.1358 6.40362 15.8012 6.40362Z" fill="#176060"/>
</svg>
