<svg width="15" height="21" viewBox="0 0 15 21" fill="none" xmlns="http://www.w3.org/2000/svg">
<path fill-rule="evenodd" clip-rule="evenodd" d="M6.26368 14.1687C6.87159 14.1891 7.42066 15.0265 9.02867 15.0265C12.0486 15.0469 14.1272 12.6369 14.7744 9.4713C17.0295 -1.49613 1.67498 -2.37434 0.106187 6.65285C-0.2664 8.7769 0.341506 11.2277 1.9299 12.0242C3.14572 12.6369 3.22415 10.8805 2.85157 10.1249C1.20434 6.77539 3.18494 3.75271 5.77344 2.89493C8.20506 2.07798 9.93073 2.75196 11.2446 4.16118C12.931 5.97888 12.1663 10.9214 10.166 12.494C9.46009 13.0454 8.16584 13.168 7.4991 12.5144C6.12641 11.1869 8.24428 8.36843 7.93052 6.30565C7.61676 4.2633 4.51841 4.56965 4.36153 7.57191C4.28309 9.10367 4.7145 9.55299 4.38114 11.0848C3.85167 13.5356 2.24366 18.5393 3.38103 20.5C5.04787 19.6831 5.87149 14.7814 6.26368 14.1687Z" fill="#176060"/>
</svg>
