<svg width="26" height="26" viewBox="0 0 26 26" fill="none" xmlns="http://www.w3.org/2000/svg">
<path d="M20.3828 19.7383C22.1406 17.8633 23.0195 15.6172 23.0195 13C23.0195 10.9297 22.4336 9.05469 21.2617 7.375C20.1289 5.69531 18.625 4.48438 16.75 3.74219V4.26953C16.75 4.93359 16.4961 5.51953 15.9883 6.02734C15.4805 6.49609 14.8945 6.73047 14.2305 6.73047H11.7695V9.25C11.7695 9.60156 11.6328 9.89453 11.3594 10.1289C11.125 10.3633 10.832 10.4805 10.4805 10.4805H8.01953V13H15.5195C15.8711 13 16.1641 13.1172 16.3984 13.3516C16.6328 13.5859 16.75 13.8789 16.75 14.2305V17.9805H17.9805C19.1523 17.9805 19.9531 18.5664 20.3828 19.7383ZM11.7695 22.9023V20.5C11.1055 20.5 10.5195 20.2461 10.0117 19.7383C9.50391 19.2305 9.25 18.6445 9.25 17.9805V16.75L3.27344 10.7734C3.07812 11.5547 2.98047 12.2969 2.98047 13C2.98047 15.5391 3.82031 17.7461 5.5 19.6211C7.21875 21.4961 9.30859 22.5898 11.7695 22.9023ZM4.15234 4.21094C6.61328 1.75 9.5625 0.519531 13 0.519531C16.4375 0.519531 19.3672 1.75 21.7891 4.21094C24.25 6.63281 25.4805 9.5625 25.4805 13C25.4805 16.4375 24.25 19.3867 21.7891 21.8477C19.3672 24.2695 16.4375 25.4805 13 25.4805C9.5625 25.4805 6.61328 24.2695 4.15234 21.8477C1.73047 19.3867 0.519531 16.4375 0.519531 13C0.519531 9.5625 1.73047 6.63281 4.15234 4.21094Z" fill="#027A71"/>
</svg>
