<svg width="15" height="19" viewBox="0 0 15 19" fill="none" xmlns="http://www.w3.org/2000/svg">
<path d="M11.0579 1.18473L10.639 0.5H8.10449V6.66708L8.09586 12.6909C8.10017 12.7357 8.10449 12.7849 8.10449 12.8297C8.10449 14.3379 6.92142 15.5686 5.462 15.5686C4.00259 15.5686 2.81952 14.3424 2.81952 12.8297C2.81952 11.3215 4.00259 10.0908 5.462 10.0908C5.76425 10.0908 6.05786 10.1489 6.32988 10.2474V7.23993C6.04922 7.1907 5.75993 7.16385 5.462 7.16385C2.4525 7.16832 0 9.71034 0 12.8342C0 15.958 2.4525 18.5 5.46632 18.5C8.48014 18.5 10.9326 15.958 10.9326 12.8342V5.66907C12.025 6.80134 13.437 7.90676 15 8.26032V5.18573C13.3031 4.40701 11.6149 2.10666 11.0579 1.18473Z" fill="#176060"/>
</svg>
