<svg width="31" height="19" viewBox="0 0 31 19" fill="none" xmlns="http://www.w3.org/2000/svg">
<path d="M0.0498047 3.5C0.0498047 1.84531 1.39512 0.5 3.0498 0.5H12.0498H14.2998H15.0498H27.0498C28.7045 0.5 30.0498 1.84531 30.0498 3.5V15.5C30.0498 17.1547 28.7045 18.5 27.0498 18.5H15.0498H14.2998H12.0498H3.0498C1.39512 18.5 0.0498047 17.1547 0.0498047 15.5V3.5ZM15.0498 3.5V15.5H27.0498V3.5H15.0498ZM8.40762 5.74531C8.25762 5.40781 7.92012 5.1875 7.5498 5.1875C7.17949 5.1875 6.84199 5.40781 6.69199 5.74531L3.69199 12.4953C3.48105 12.9688 3.69668 13.5219 4.17012 13.7328C4.64355 13.9437 5.19668 13.7281 5.40762 13.2547L5.8248 12.3125H9.27481L9.69199 13.2547C9.90293 13.7281 10.4561 13.9391 10.9295 13.7328C11.4029 13.5266 11.6139 12.9688 11.4076 12.4953L8.40762 5.74531ZM7.5498 8.43125L8.44043 10.4375H6.65918L7.5498 8.43125ZM21.0498 5.1875C21.5654 5.1875 21.9873 5.60938 21.9873 6.125V6.3125H24.0498H24.7998C25.3154 6.3125 25.7373 6.73438 25.7373 7.25C25.7373 7.76562 25.3154 8.1875 24.7998 8.1875H24.7061L24.6311 8.39844C24.2139 9.54219 23.5811 10.5828 22.7748 11.4641C22.817 11.4922 22.8592 11.5156 22.9014 11.5391L23.7873 12.0687C24.2326 12.3359 24.3732 12.9125 24.1107 13.3531C23.8482 13.7938 23.267 13.9391 22.8264 13.6766L21.9404 13.1469C21.7295 13.0203 21.5279 12.8891 21.3264 12.7484C20.8295 13.1 20.2998 13.4047 19.7326 13.6578L19.5639 13.7328C19.0904 13.9437 18.5373 13.7281 18.3264 13.2547C18.1154 12.7812 18.3311 12.2281 18.8045 12.0172L18.9732 11.9422C19.2732 11.8063 19.5639 11.6562 19.8404 11.4828L19.2686 10.9109C18.9029 10.5453 18.9029 9.95 19.2686 9.58437C19.6342 9.21875 20.2295 9.21875 20.5951 9.58437L21.2795 10.2687L21.3029 10.2922C21.8842 9.67812 22.3576 8.96562 22.6998 8.18281H21.0498H17.6748C17.1592 8.18281 16.7373 7.76094 16.7373 7.24531C16.7373 6.72969 17.1592 6.30781 17.6748 6.30781H20.1123V6.12031C20.1123 5.60469 20.5342 5.18281 21.0498 5.18281V5.1875Z" fill="#176060"/>
</svg>
