<svg width="18" height="15" viewBox="0 0 18 15" fill="none" xmlns="http://www.w3.org/2000/svg">
<path d="M3.9375 0.25C4.51766 0.25 5.07406 0.480468 5.4843 0.890704C5.89453 1.30094 6.125 1.85734 6.125 2.4375C6.125 3.01766 5.89453 3.57406 5.4843 3.9843C5.07406 4.39453 4.51766 4.625 3.9375 4.625C3.35734 4.625 2.80094 4.39453 2.3907 3.9843C1.98047 3.57406 1.75 3.01766 1.75 2.4375C1.75 1.85734 1.98047 1.30094 2.3907 0.890704C2.80094 0.480468 3.35734 0.25 3.9375 0.25ZM14 0.25C14.5802 0.25 15.1366 0.480468 15.5468 0.890704C15.957 1.30094 16.1875 1.85734 16.1875 2.4375C16.1875 3.01766 15.957 3.57406 15.5468 3.9843C15.1366 4.39453 14.5802 4.625 14 4.625C13.4198 4.625 12.8634 4.39453 12.4532 3.9843C12.043 3.57406 11.8125 3.01766 11.8125 2.4375C11.8125 1.85734 12.043 1.30094 12.4532 0.890704C12.8634 0.480468 13.4198 0.25 14 0.25ZM0 8.41758C0 6.80703 1.30703 5.5 2.91758 5.5H4.08516C4.51992 5.5 4.93281 5.5957 5.30469 5.76523C5.26914 5.96211 5.25273 6.16719 5.25273 6.375C5.25273 7.41953 5.71211 8.35742 6.43672 9C6.43125 9 6.42578 9 6.41758 9H0.582422C0.2625 9 0 8.7375 0 8.41758ZM11.0824 9C11.077 9 11.0715 9 11.0633 9C11.7906 8.35742 12.2473 7.41953 12.2473 6.375C12.2473 6.16719 12.2281 5.96484 12.1953 5.76523C12.5672 5.59297 12.9801 5.5 13.4148 5.5H14.5824C16.193 5.5 17.5 6.80703 17.5 8.41758C17.5 8.74023 17.2375 9 16.9176 9H11.0824ZM6.125 6.375C6.125 5.67881 6.40156 5.01113 6.89384 4.51884C7.38613 4.02656 8.05381 3.75 8.75 3.75C9.44619 3.75 10.1139 4.02656 10.6062 4.51884C11.0984 5.01113 11.375 5.67881 11.375 6.375C11.375 7.07119 11.0984 7.73887 10.6062 8.23116C10.1139 8.72344 9.44619 9 8.75 9C8.05381 9 7.38613 8.72344 6.89384 8.23116C6.40156 7.73887 6.125 7.07119 6.125 6.375ZM3.5 13.5199C3.5 11.5074 5.13242 9.875 7.14492 9.875H10.3551C12.3676 9.875 14 11.5074 14 13.5199C14 13.9219 13.6746 14.25 13.2699 14.25H4.23008C3.82812 14.25 3.5 13.9246 3.5 13.5199Z" fill="#4B5563"/>
</svg>
