<svg width="25" height="25" viewBox="0 0 25 25" fill="none" xmlns="http://www.w3.org/2000/svg">
<path d="M10.2407 0.84218C9.95943 0.546868 9.53756 0.434368 9.14381 0.537493C8.75006 0.640618 8.44537 0.95468 8.34225 1.34843L7.60162 4.27812L4.69537 3.4578C4.30162 3.3453 3.87975 3.4578 3.59381 3.74374C3.30787 4.02968 3.19537 4.45155 3.30787 4.8453L4.12818 7.75156L1.1985 8.49687C0.804747 8.59531 0.495372 8.90468 0.38756 9.29843C0.279747 9.69218 0.396935 10.1094 0.692247 10.3906L2.85787 12.5L0.692247 14.6094C0.396935 14.8906 0.284435 15.3125 0.38756 15.7062C0.490685 16.1 0.804747 16.4047 1.1985 16.5078L4.12818 17.2484L3.30787 20.1547C3.19537 20.5484 3.30787 20.9703 3.59381 21.2562C3.87975 21.5422 4.30162 21.6547 4.69537 21.5422L7.60162 20.7219L8.34225 23.6516C8.44069 24.0453 8.75006 24.3547 9.14381 24.4625C9.53756 24.5703 9.95475 24.4531 10.2407 24.1625L12.3501 21.9969L14.4594 24.1625C14.7454 24.4531 15.1626 24.5703 15.5563 24.4625C15.9501 24.3547 16.2547 24.0453 16.3579 23.6516L17.0985 20.7219L20.0047 21.5422C20.3985 21.6547 20.8204 21.5422 21.1063 21.2562C21.3922 20.9703 21.5047 20.5484 21.3922 20.1547L20.5719 17.2484L23.5016 16.5078C23.8954 16.4094 24.2047 16.1 24.3126 15.7062C24.4204 15.3125 24.3032 14.8953 24.0126 14.6094L21.8469 12.5L24.0126 10.3906C24.3032 10.1047 24.4204 9.68749 24.3126 9.29374C24.2047 8.89999 23.8954 8.59531 23.5016 8.49218L20.5719 7.75156L21.3922 4.8453C21.5047 4.45155 21.3922 4.02968 21.1063 3.74374C20.8204 3.4578 20.3985 3.3453 20.0047 3.4578L17.0985 4.27812L16.3532 1.34843C16.2547 0.95468 15.9454 0.645305 15.5516 0.537493C15.1579 0.42968 14.7407 0.546868 14.4594 0.84218L12.3501 3.0078L10.2407 0.84218Z" fill="#176060"/>
</svg>
