<svg width="13" height="15" viewBox="0 0 13 15" fill="none" xmlns="http://www.w3.org/2000/svg">
<path d="M4.15625 0.90625C4.15625 0.542578 3.86367 0.25 3.5 0.25C3.13633 0.25 2.84375 0.542578 2.84375 0.90625V2H1.75C0.784766 2 0 2.78477 0 3.75V4.1875V5.5V12.5C0 13.4652 0.784766 14.25 1.75 14.25H10.5C11.4652 14.25 12.25 13.4652 12.25 12.5V5.5V4.1875V3.75C12.25 2.78477 11.4652 2 10.5 2H9.40625V0.90625C9.40625 0.542578 9.11367 0.25 8.75 0.25C8.38633 0.25 8.09375 0.542578 8.09375 0.90625V2H4.15625V0.90625ZM1.3125 5.5H10.9375V12.5C10.9375 12.7406 10.7406 12.9375 10.5 12.9375H1.75C1.50937 12.9375 1.3125 12.7406 1.3125 12.5V5.5Z" fill="#4B5563"/>
</svg>
