<svg width="25" height="21" viewBox="0 0 25 21" fill="none" xmlns="http://www.w3.org/2000/svg">
<path d="M2.88164 12.5813L11.352 20.4891C11.7035 20.8172 12.1676 21 12.6504 21C13.1332 21 13.5973 20.8172 13.9488 20.4891L22.4191 12.5813C23.8441 11.2547 24.6504 9.39376 24.6504 7.44844V7.17657C24.6504 3.90001 22.2832 1.10626 19.0535 0.567194C16.916 0.210944 14.741 0.909382 13.2129 2.43751L12.6504 3.00001L12.0879 2.43751C10.5598 0.909382 8.38477 0.210944 6.24727 0.567194C3.01758 1.10626 0.650391 3.90001 0.650391 7.17657V7.44844C0.650391 9.39376 1.45664 11.2547 2.88164 12.5813Z" fill="#176060"/>
</svg>
