<svg width="61" height="61" viewBox="0 0 61 61" fill="none" xmlns="http://www.w3.org/2000/svg">
<path d="M35.4385 42.0903H22.2549V40.4644C22.2549 39.8003 22.3477 39.1802 22.5332 38.604C22.7188 38.0181 22.9678 37.4712 23.2803 36.9634C23.5928 36.4458 23.959 35.9624 24.3789 35.5132C24.7988 35.0542 25.248 34.6147 25.7266 34.1948C26.2051 33.7651 26.6934 33.355 27.1914 32.9644C27.6895 32.564 28.1777 32.1636 28.6562 31.7632C29.1055 31.3823 29.5156 31.0112 29.8867 30.6499C30.2578 30.2788 30.5752 29.8979 30.8389 29.5073C31.1025 29.1167 31.3076 28.7065 31.4541 28.2769C31.6006 27.8374 31.6738 27.3638 31.6738 26.856C31.6738 26.2993 31.5859 25.8159 31.4102 25.4058C31.2441 24.9858 31.0049 24.6392 30.6924 24.3657C30.3896 24.0825 30.0283 23.8726 29.6084 23.7358C29.1885 23.5894 28.7295 23.5161 28.2314 23.5161C27.3721 23.5161 26.498 23.7163 25.6094 24.1167C24.7207 24.5171 23.8662 25.1177 23.0459 25.9185V22.6519C23.4756 22.3296 23.9102 22.0513 24.3496 21.8169C24.7891 21.5728 25.2432 21.3726 25.7119 21.2163C26.1807 21.0503 26.6738 20.9282 27.1914 20.8501C27.709 20.772 28.2607 20.7329 28.8467 20.7329C29.7939 20.7329 30.6533 20.8599 31.4248 21.1138C32.1963 21.3579 32.8555 21.7241 33.4023 22.2124C33.9492 22.6909 34.3691 23.2915 34.6621 24.0142C34.9648 24.7368 35.1162 25.5669 35.1162 26.5044C35.1162 27.354 35.0088 28.1206 34.7939 28.8042C34.5889 29.478 34.291 30.1079 33.9004 30.6938C33.5195 31.2798 33.0557 31.8364 32.5088 32.3638C31.9619 32.8911 31.3516 33.4331 30.6777 33.9897C30.1113 34.4487 29.5449 34.8979 28.9785 35.3374C28.4219 35.7671 27.9189 36.1919 27.4697 36.6118C27.0205 37.022 26.6543 37.437 26.3711 37.8569C26.0977 38.2671 25.9609 38.6821 25.9609 39.1021V39.1753H35.4385V42.0903Z" fill="black"/>
<path fill-rule="evenodd" clip-rule="evenodd" d="M52.8613 24.8716L58.5801 19.1225C60.0325 22.6627 60.8192 26.5358 60.8192 30.5904C60.8192 47.3535 47.1727 61 30.4096 61C13.6465 61 0 47.3535 0 30.5904C0 26.5055 0.816974 22.6325 2.26937 19.062L7.98819 24.8111C7.50406 26.6568 7.26199 28.5933 7.26199 30.5904C7.26199 43.3594 17.6406 53.738 30.4399 53.738C43.2089 53.738 53.5875 43.3594 53.5875 30.5904C53.5875 28.6236 53.3454 26.7173 52.8613 24.8716Z" fill="#176060"/>
<path d="M26.7786 7.71511C27.9587 7.53356 29.169 7.44278 30.4096 7.44278C31.6502 7.44278 32.8605 7.53356 34.0406 7.71511C40.5461 8.74389 46.1439 12.4959 49.6539 17.7306L54.8583 12.5262C49.321 5.05237 40.4251 0.180786 30.4096 0.180786C20.4244 0.180786 11.5284 5.02212 5.99115 12.4959L11.1956 17.7003C14.7055 12.4657 20.3033 8.74389 26.7786 7.71511Z" fill="black"/>
</svg>
