<svg width="61" height="61" viewBox="0 0 61 61" fill="none" xmlns="http://www.w3.org/2000/svg">
<path d="M22.9824 41.043V37.8496C24.3496 38.9336 25.8926 39.4756 27.6113 39.4756C29.0078 39.4756 30.1211 39.1582 30.9512 38.5234C31.791 37.8887 32.2109 37.0293 32.2109 35.9453C32.2109 33.5625 30.3896 32.3711 26.7471 32.3711H25.1211V29.6465H26.6738C29.9062 29.6465 31.5225 28.5234 31.5225 26.2773C31.5225 24.207 30.2627 23.1719 27.7432 23.1719C26.3369 23.1719 25.0137 23.6748 23.7734 24.6807V21.6631C25.1992 20.8623 26.8838 20.4619 28.8271 20.4619C30.6924 20.4619 32.1865 20.9307 33.3096 21.8682C34.4326 22.8057 34.9941 24.0068 34.9941 25.4717C34.9941 28.2354 33.5879 30.0127 30.7754 30.8037V30.8623C32.2891 31.0088 33.4854 31.541 34.3643 32.459C35.2432 33.3672 35.6826 34.5049 35.6826 35.8721C35.6826 37.7568 34.9746 39.2803 33.5586 40.4424C32.1426 41.5947 30.2773 42.1709 27.9629 42.1709C25.8828 42.1709 24.2227 41.7949 22.9824 41.043Z" fill="black"/>
<path fill-rule="evenodd" clip-rule="evenodd" d="M53.0419 24.6908L58.7608 18.9417C60.2132 22.4819 60.9999 26.355 60.9999 30.4096C60.9999 47.1727 47.3534 60.8192 30.5903 60.8192C13.8272 60.8192 0.180664 47.1727 0.180664 30.4096C0.180664 26.3247 0.997638 22.4517 2.45004 18.8812L8.16886 24.6303C7.68473 26.476 7.44266 28.4126 7.44266 30.4096C7.44266 43.1786 17.8213 53.5572 30.6205 53.5572C43.3895 53.5572 53.7681 43.1786 53.7681 30.4096C53.7681 28.4428 53.5261 26.5365 53.0419 24.6908Z" fill="#176060"/>
<path d="M26.9593 7.53432C28.1393 7.35277 29.3497 7.26199 30.5903 7.26199C31.8309 7.26199 33.0412 7.35277 34.2213 7.53432C40.7268 8.5631 46.3246 12.3151 49.8346 17.5498L55.039 12.3454C49.5017 4.87159 40.6058 0 30.5903 0C20.605 0 11.7091 4.84133 6.17181 12.3151L11.3762 17.5196C14.8862 12.2849 20.484 8.5631 26.9593 7.53432Z" fill="black"/>
</svg>
