<svg width="61" height="61" viewBox="0 0 61 61" fill="none" xmlns="http://www.w3.org/2000/svg">
<path d="M33.3838 20.8135V34.3779H36.5039V37.2051H33.3838V41.8193H30.0879V37.2051H20.5811V34.3486C21.4404 33.3818 22.3193 32.3369 23.2178 31.2139C24.126 30.0811 24.9951 28.9287 25.8252 27.7568C26.665 26.5752 27.4414 25.3936 28.1543 24.2119C28.8672 23.0303 29.4678 21.8975 29.9561 20.8135H33.3838ZM30.0879 34.3779V25.5596C29.0234 27.4736 27.9688 29.1436 26.9238 30.5693C25.8887 31.9951 24.917 33.2646 24.0088 34.3779H30.0879Z" fill="black"/>
<path fill-rule="evenodd" clip-rule="evenodd" d="M52.8613 24.6908L58.5801 18.9417C60.0325 22.4819 60.8192 26.355 60.8192 30.4096C60.8192 47.1727 47.1727 60.8192 30.4096 60.8192C13.6465 60.8192 0 47.1727 0 30.4096C0 26.3247 0.816974 22.4517 2.26937 18.8812L7.98819 24.6303C7.50406 26.476 7.26199 28.4126 7.26199 30.4096C7.26199 43.1786 17.6406 53.5572 30.4399 53.5572C43.2089 53.5572 53.5875 43.1786 53.5875 30.4096C53.5875 28.4428 53.3454 26.5365 52.8613 24.6908Z" fill="#176060"/>
<path d="M26.7786 7.53432C27.9587 7.35277 29.169 7.26199 30.4096 7.26199C31.6502 7.26199 32.8605 7.35277 34.0406 7.53432C40.5461 8.5631 46.1439 12.3151 49.6539 17.5498L54.8583 12.3454C49.321 4.87159 40.4251 0 30.4096 0C20.4244 0 11.5284 4.84133 5.99115 12.3151L11.1956 17.5196C14.7055 12.2849 20.3033 8.5631 26.7786 7.53432Z" fill="black"/>
</svg>
