<svg width="61" height="61" viewBox="0 0 61 61" fill="none" xmlns="http://www.w3.org/2000/svg">
<path d="M34.1895 20.7061V42.1807H30.791V24.8662C30.1758 25.3057 29.5117 25.6816 28.7988 25.9941C28.0957 26.2969 27.29 26.5654 26.3818 26.7998V23.8994C26.9482 23.7139 27.4951 23.5186 28.0225 23.3135C28.5498 23.1084 29.0674 22.8789 29.5752 22.625C30.0928 22.3711 30.6104 22.0879 31.1279 21.7754C31.6553 21.4629 32.1973 21.1064 32.7539 20.7061H34.1895Z" fill="black"/>
<path fill-rule="evenodd" clip-rule="evenodd" d="M53.0419 24.8716L58.7608 19.1225C60.2132 22.6627 60.9999 26.5358 60.9999 30.5904C60.9999 47.3535 47.3534 61 30.5903 61C13.8272 61 0.180664 47.3535 0.180664 30.5904C0.180664 26.5055 0.997638 22.6325 2.45004 19.062L8.16886 24.8111C7.68473 26.6568 7.44266 28.5933 7.44266 30.5904C7.44266 43.3594 17.8213 53.738 30.6205 53.738C43.3895 53.738 53.7681 43.3594 53.7681 30.5904C53.7681 28.6236 53.5261 26.7173 53.0419 24.8716Z" fill="#176060"/>
<path d="M26.9593 7.71511C28.1393 7.53356 29.3497 7.44278 30.5903 7.44278C31.8309 7.44278 33.0412 7.53356 34.2213 7.71511C40.7268 8.74389 46.3246 12.4959 49.8346 17.7306L55.039 12.5262C49.5017 5.05237 40.6058 0.180786 30.5903 0.180786C20.605 0.180786 11.7091 5.02212 6.17181 12.4959L11.3762 17.7003C14.8862 12.4657 20.484 8.74389 26.9593 7.71511Z" fill="black"/>
</svg>
