<svg id="Layer_1" data-name="Layer 1" xmlns="http://www.w3.org/2000/svg" fill="#286675" viewBox="0 0 253.86 238.27"><path d="M111.1,213.25h-91c-7.26,0-9-1.78-9-9,0-4.23.08-8.45,0-12.67-.07-2.93,1.09-4.89,3.84-6,5.06-2,7.74-5.87,7.69-11.14,0-5.1-2.86-8.82-7.63-10.76-3-1.21-4-3.3-3.9-6.36.11-5.13.14-10.26,0-15.38-.09-3.26,1-5.4,4.12-6.7,4.77-2,7.49-5.78,7.42-10.89a11,11,0,0,0-7.51-10.79c-2.9-1.12-4.12-3.17-4-6.31.15-4.82,0-9.65,0-14.48,0-5.63,1.31-7,6.83-7,6.94,0,13.88-.16,20.81.06,3,.09,4.15-.94,3.78-3.86-.49-3.93,1-6.44,4.86-8,4.46-1.82,6.44-5.65,6.43-10.48s-2.13-8.41-6.3-10.13-5.25-4.36-5-8.42c.23-4.52,0-9,.08-13.58s1.7-6.3,6.27-6.3Q97,25,145.2,25c2.52,0,4.77.54,4.7,3.5s-2.46,3.41-4.9,3.41c-11.46,0-22.93.14-34.39-.07-3.59-.07-4.57,1-4.52,4.56.19,14.94.23,29.87,0,44.8-.06,4,1.25,5,4.87,4.61,3-.29,6-.06,9-.06,2.55,0,5.18.23,5.1,3.6s-2.79,3.42-5.3,3.42c-13.42,0-26.85.11-40.27-.07-3.42,0-4.65.71-4.63,4.42q.21,52.5,0,105c0,3.43,1,4.29,4.36,4.28q60.65-.15,121.28,0c3.42,0,4.72-1,4.23-4.34a12.84,12.84,0,0,1,0-3.61c.58-4.2-.75-6.82-4.51-9.53-10.16-7.34-9.42-22.66,1.24-29.55,2.82-1.83,3.53-3.67,3.26-6.55a15.26,15.26,0,0,1,0-3.17c.6-4.91-.64-8.26-5.14-11.59-9.22-6.82-8.68-21.65.78-28.07,3.78-2.56,4.5-5.2,4.4-9.17-.2-8-.06-8-8.09-8H139.23a20.2,20.2,0,0,1-4-.17,3.22,3.22,0,0,1-2.88-3.48c.08-2,1.36-3,3.14-3.27a18.46,18.46,0,0,1,3.16-.1q31.91,0,63.81,0c7.09,0,8.91,1.77,9,8.69,0,4.22,0,8.44,0,12.67a6.44,6.44,0,0,1-4,6.45c-4.64,2.16-7.32,5.67-7.27,11,0,5.07,2.58,8.57,7.06,10.64a6.66,6.66,0,0,1,4.21,7.22c-.19,2.36.75,3.18,3.11,3.14,6.18-.12,12.37,0,18.55-.06,1,0,2.53.34,2.68-1,.32-2.83.11-5.72.34-8.57.24-3.09-.58-5.07-3.44-7-11.18-7.56-10.75-23.25.68-30.69,2-1.33,3-2.7,2.75-5.07a28.54,28.54,0,0,1,0-4.53c.25-4.59-.32-8-4.94-11.27-9.32-6.57-8.83-21.21.61-28.07,3.63-2.64,4.49-5.29,4.38-9.3-.22-8.09-.07-8.09-8.18-8.09H165c-1.06,0-2.12,0-3.17,0-2.42,0-4.86-.49-4.83-3.47S159.29,25,161.81,25c10.71,0,21.42,0,32.13,0,13.58,0,27.15,0,40.73,0,6,0,8.08,2.13,8.11,8.17,0,4.22-.1,8.45,0,12.67.11,3.27-1.23,5.59-4.12,6.88-4.77,2.13-7.41,5.87-7.41,10.92s2.82,8.76,7.5,10.9a6.4,6.4,0,0,1,4,6.44c-.06,5.13-.05,10.26,0,15.39a6.8,6.8,0,0,1-3.93,6.51c-10.36,5.81-10.24,15.85.21,21.94a6.65,6.65,0,0,1,3.72,6.21c0,4.53,0,9.05,0,13.58-.05,5.65-2.22,7.81-8,7.87-6.48.06-13,.12-19.45,0-2.76-.07-4.34.47-4,3.66.48,3.95-1.29,6.49-4.93,8.17-4.19,1.94-6.23,5.5-6.34,10.14A10.69,10.69,0,0,0,206.49,185c3.75,1.74,5,4.3,4.91,8.19-.15,4.07,0,8.14-.05,12.22-.08,5.87-2,7.81-7.93,7.81q-38.92,0-77.84,0Zm-43-63.31c0-17.64-.08-35.28.08-52.92,0-3.29-.71-4.37-4.19-4.31-12.21.23-24.42.09-36.63.09-9.51,0-9.4,0-9.55,9.36-.06,3.27.76,5.3,3.7,7.31,10.06,6.87,10.8,22.05,1,29-4.22,3-5.07,6.07-4.69,10.45a21.18,21.18,0,0,1,0,4.06c-.32,3,.72,4.78,3.41,6.53a17.94,17.94,0,0,1,.83,29.57c-3.43,2.48-4.79,4.92-4.25,8.86a15.76,15.76,0,0,1,0,4.06c-.4,3.27.72,4.46,4.21,4.41,14-.19,28-.16,42.06,0,3.12,0,4.09-.81,4.07-4C68,184.91,68.11,167.42,68.11,149.94ZM99.56,59.36c0-7.54-.18-15.09.08-22.62.13-3.68-.84-5-4.72-4.89-11.45.24-22.92.09-34.38.09-12,0-12,0-11.45,12,.07,1.68.46,2.75,2,3.57a18.34,18.34,0,0,1-.18,32.4c-2.2,1.19-1.93,2.91-1.67,4.61.3,2,2.14,1.23,3.32,1.24,8.14.07,16.29-.12,24.42.12,3.33.09,4.47-.79,4.37-4.25-.23-8.74-.1-17.49,0-26.24,0-2.25-.14-4.89,3.11-5,3.44-.12,3.61,2.42,3.6,5Q88,66.66,88,78c0,8,0,7.84,7.79,7.88,3,0,3.87-1,3.81-3.88C99.45,74.44,99.56,66.9,99.56,59.36Z"/><path d="M134.17,141q17.63,0,35.27,0c2.62,0,5.65-.12,5.64,3.51s-3,3.5-5.65,3.5H98.89c-2.68,0-5.56-.07-5.41-3.74.15-3.35,3-3.27,5.41-3.27Q116.53,141,134.17,141Z"/><path d="M155.31,72.06c-8.58,0-17.16,0-25.73,0-2.5,0-4.82-.41-4.86-3.35s2.33-3.52,4.78-3.52h51.92c2.54,0,5.23.36,5.08,3.65-.13,2.86-2.54,3.24-5,3.22C172.76,72,164,72.06,155.31,72.06Z"/><path d="M124.35,126.15q12.89,0,25.77,0c2.29,0,4.87-.14,4.92,3.16,0,3.54-2.61,3.45-5.11,3.45H98.83c-2.43,0-5.27.3-5.36-3.19-.1-3.93,3.07-3.39,5.56-3.4C107.47,126.12,115.91,126.15,124.35,126.15Z"/><path d="M104.54,111c2.11,0,4.21,0,6.31,0,2.28-.07,4,.88,4.16,3.16.17,2.68-1.83,3.57-4.18,3.59-4.51,0-9,.07-13.53,0-2.12,0-4-.75-3.87-3.36.07-2.45,1.64-3.35,3.9-3.36Z"/><path d="M135.21,56.86h-6.76c-2.33,0-3.84-1.12-3.73-3.47.09-2.06,1.47-3.12,3.65-3.1,4.79.05,9.6,0,14.4,0,2.21,0,3.45,1.14,3.49,3.22s-1.2,3.31-3.41,3.32h-7.64Z"/><path d="M160.37,179.73c0,1.5.06,3,0,4.51-.11,2.21-1.07,3.78-3.54,3.78-2.28,0-3.23-1.56-3.32-3.51-.16-3.15-.16-6.32,0-9.47.09-1.95,1-3.53,3.29-3.56,2.45,0,3.46,1.5,3.58,3.74C160.43,176.72,160.36,178.23,160.37,179.73Z"/><path d="M168.6,179.55c0-1.5,0-3,0-4.5,0-2.11,1-3.47,3.21-3.58s3.37,1.23,3.45,3.3c.12,3.3.12,6.61,0,9.91-.07,2-1.1,3.45-3.39,3.35s-3.2-1.43-3.26-3.52C168.56,182.86,168.6,181.21,168.6,179.55Z"/><path d="M123.38,179.59c0-1.65-.1-3.31,0-5a3.14,3.14,0,0,1,3.18-3.16A2.93,2.93,0,0,1,130,174.3a102.2,102.2,0,0,1,0,10.79,3,3,0,0,1-3.32,2.95,3.12,3.12,0,0,1-3.28-3C123.24,183.21,123.39,181.39,123.38,179.59Z"/><path d="M115.11,179.75c0,1.65.1,3.31,0,5A3.22,3.22,0,0,1,111.6,188a3,3,0,0,1-3.22-3.1,96.33,96.33,0,0,1-.06-9.91c.07-2,1-3.53,3.28-3.54,2.45,0,3.45,1.5,3.52,3.76,0,1.5,0,3,0,4.51Z"/><path d="M99.85,180.17c0,1.65.07,3.31,0,5-.1,2-1.35,2.94-3.28,2.91-1.7,0-3-.82-3.07-2.61-.12-3.75-.11-7.51,0-11.26.05-1.81,1.32-2.64,3-2.68,1.91,0,3.23.8,3.34,2.83S99.85,178.22,99.85,180.17Z"/><path d="M145,180.1c0,1.8.12,3.61,0,5.4S143.5,188,141.83,188s-3.06-.72-3.12-2.55c-.13-3.74-.12-7.5,0-11.25,0-1.79,1.22-2.68,3-2.75,1.91-.07,3.27.74,3.41,2.76s0,3.91,0,5.86Z"/><path d="M50,151.74c0-10.25,0-20.5,0-30.76,0-2.62.27-5.22,3.51-5.12,2.95.1,3.18,2.66,3.18,5.06q0,31,0,62c0,2.46.09,5.22-3.5,5.05C50,187.78,50,185.31,50,183Q50,167.35,50,151.74Z"/></svg>