<svg id="Layer_1" data-name="Layer 1" xmlns="http://www.w3.org/2000/svg" fill="#286675" viewBox="0 0 253.86 238.27"><path d="M177.86,58.51c-3.74-7-5.28-14.35-3.39-22.19a29,29,0,0,1,28.7-22.46c1.54,0,3.93-1,4.32,1.71.33,2.36.55,4.41-2.72,5.77a15.19,15.19,0,1,0,19.76,20.12c1.32-3.11,3.05-3.33,5.61-3,3.14.37,2,2.89,2,4.51.17,14.25-9.66,26.19-24.21,28.85-3.51.64-3.87,2-3.86,5q.14,54.3.05,108.6c0,12.67-7.17,22.2-18.8,25.26-13.3,3.5-26.75-4.78-30.09-18.53-3.08-12.7,5.39-26.3,18.24-29.32a32.56,32.56,0,0,1,9.38-.78c2,.12,2.58-.67,2.58-2.6q-.08-29.41,0-58.83c0-1.93-.32-2.67-2.53-2.16-5.06,1.17-10.2,2-15.27,3.08-2.09.47-3.38.45-3.74-2.13-.3-2.13-.43-3.56,2.32-4C173.58,94,181,92.71,188.31,91c3.38-.81,3.5.45,3.49,3.12-.08,21.25,0,42.5,0,63.76,0,10.45,0,10.45-10.39,10.5-11.37,0-18.45,5.53-20.33,15.69s5.85,19.95,16.87,21.2c9.56,1.09,19.26-7.07,19.7-16.8.24-5.2.1-10.42.1-15.63,0-32.22,0-64.44.08-96.67,0-3.09-.57-4.82-3.87-5.33a11.68,11.68,0,0,1-6.61-3.11c-3.6-3.77-7.46-3.12-11.93-2.16Q133.1,74.69,90.71,83.37c-3.61.73-4.15,2.24-4.14,5.43.11,29.21,0,58.42.17,87.62,0,4.05-1.09,5.36-5,4.91a43.25,43.25,0,0,0-7.8,0c-11,.71-18.22,8.55-17.9,19.43A18.24,18.24,0,0,0,74.33,218.2c10.24,0,18.35-7.82,18.61-18.51.24-10.27.06-20.56.06-30.85,0-18.37.08-36.75-.08-55.12,0-3,1.07-4,3.78-4.48,18.79-3.67,37.54-7.51,56.32-11.18,1.41-.28,3.43-1.77,4.4,1s1,4.38-2.64,5c-14.25,2.64-28.44,5.56-42.65,8.42-4.27.86-9.79.61-12.4,3.21S99,123.85,99,128.08c-.06,24,.06,48-.08,72-.07,10.28-5.11,17.78-14.38,22.07s-18.2,2.81-26.11-3.63a24.47,24.47,0,0,1-7.25-27.18,24.87,24.87,0,0,1,22.62-16.24c6.85-.11,6.85-.11,6.85-7,0-27.84.14-55.68-.14-83.51,0-4.66,1.59-5.86,5.68-6.69,30.13-6.18,60.21-12.58,90.31-18.92A11.73,11.73,0,0,0,177.86,58.51Zm45.66-5.6c-10,5.34-19.05,5.53-27-1.63-8.94-8.06-9.14-17.92-3.71-28.57-8.69,3.95-14,13.49-12.87,22.38,1.34,10.56,8.75,18.85,18.37,20.56C208.89,67.53,218.4,63,223.52,52.91Z"/><path d="M68.32,101.93c0,11.66.13,23.32,0,35-.14,10.15-6.76,17.44-16.63,18.78-8.65,1.18-17.09-4.51-19.7-13.3C28.87,132,35.64,120.9,46.36,119.24c2.72-.42,3.35-1.35,3.28-3.85-.15-5.89,0-11.79-.09-17.68-.06-2.54.51-3.71,3.38-3.65s3.12,1.22,3.09,3.52c-.1,7.4-.27,14.82.06,22.21.17,4-.72,5.47-5.07,5.25-6.95-.37-11.57,3.28-13.2,9.34-1.31,4.9.25,9,3.87,12.2a11.4,11.4,0,0,0,12.65,2.11c4.53-1.89,7.32-5.35,7.52-10.35.21-5.48.09-11,.09-16.45q0-24.27,0-48.55c0-2.14.25-3.89-3-3.9S56,71.38,56,73.43c0,4-.12,7.95,0,11.92.11,2.49-1.24,2.57-3.07,2.55s-3.48.16-3.4-2.64c.16-6.44.12-12.89,0-19.34,0-2.24.89-2.79,2.93-2.74,4.25.11,8.51.18,12.75,0,2.71-.14,3.14,1.06,3.13,3.4C68.28,78.35,68.33,90.14,68.32,101.93Z"/><path d="M83.73,14a34.58,34.58,0,0,1,2.18,2.77c3.1,5,7.32,8.32,13.17,9.52,2.57.52,3.77,1.5,1.69,4.34s-4.75,5.16-5,8.76c-.26,3.38-.06,6.79-.06,10.43a16.67,16.67,0,0,1-2.9-.64A21.44,21.44,0,0,0,75,49.12c-2.17,1-3.66.76-3.26-2.27a19.53,19.53,0,0,0-5.06-16.24c-1.71-1.94-2-3.15,1.11-4.24C75.5,23.63,75.44,23.47,83.73,14Zm9,17.22c-.32-1-1.25-1-1.92-1.33-1.63-.68-3.49-1-4.46-2.68-1.81-3.14-3.51-3.15-5.31,0-1.36,2.37-5.19,1.74-6,3.73s2.93,3.78,2.52,6.55c-.6,4.06,1.23,4.75,4.53,3.18,2.55-1.21,5.22,1.88,7,.54s-.12-5,1.81-7.2A22.71,22.71,0,0,0,92.69,31.22Z"/><path d="M132.81,131.29c1.14,1.44,1.9,2.23,2.47,3.15,3.1,5,7.32,8.32,13.18,9.51,2.56.52,4.06,1.72,1.59,4.28-5.15,5.37-5.93,12-4.86,19.28a20.44,20.44,0,0,1-3.45-.74,20.81,20.81,0,0,0-17.38,0c-2.18,1-3.68.76-3.26-2.27.86-6.35-1.1-11.81-5.29-16.59-1-1.19-2.42-2.87.61-3.45C124,143,128.88,138.13,132.81,131.29Zm.52,10.85c-1.14,0-1.43.89-1.91,1.49-1.28,1.63-2.56,3.17-4.77,3.63-2.48.51-3.27,1.79-1.28,3.8,2.22,2.23.44,5.95,2.1,7.56,1.92,1.85,5.07-1.73,8-.11,2.55,1.43,4.28.53,3.59-2.6s3.93-5.52,2.32-7.52-5.41-2.24-7-5.11A6.27,6.27,0,0,0,133.33,142.14Z"/><path d="M232.34,216.6c.22,1.12-.85,2-2.93,1.68-2.75-.35-3.74.92-3.4,3.53s-1.4,2.62-3.32,2.68-3.23-.37-2.84-2.67c.5-3-.89-3.91-3.66-3.55-2.42.32-2.57-1.26-2.56-3.09s0-3.47,2.51-3c3.18.54,4.19-.85,3.72-3.83-.35-2.2,1-2.48,2.75-2.38s3.66-.38,3.35,2.25c-.38,3.28,1,4.37,4.11,4C232.92,211.8,232,214.06,232.34,216.6Z"/><path d="M139.13,41.78c.52,2.48-.5,3.57-3.06,3.2-2.27-.33-3.37.59-3,3,.39,2.74-1.16,3-3.42,3.09-2.62.1-3-1.18-2.74-3.24.37-2.54-1-3.12-3.1-2.79-2.75.42-3.15-1.07-3.15-3.36s.68-3.41,3.06-3,3.6-.55,3.19-3.13c-.32-2,.38-3,2.65-2.9s3.93.13,3.5,3,1,3.37,3.37,3.05C138.93,38.23,139.5,39.59,139.13,41.78Z"/><path d="M40.45,32.72c2.68-.52,3.5.68,3.18,2.93s.72,3.28,3,2.94,3,.73,3,3-.32,3.82-3.09,3.37c-2.37-.38-3.28.7-2.94,3s-.72,3.05-3,3-3.81-.34-3.37-3.1c.38-2.37-.71-3.27-3-2.93s-3-.73-3-3,.33-3.81,3.1-3.37c2.37.37,3.25-.71,2.94-3C36.89,32.89,38.26,32.13,40.45,32.72Z"/><path d="M31.07,186.67c2.13-.42,3.09.42,2.79,2.63-.33,2.43.26,4,3.21,3.6,2.39-.36,3,.85,3,3.08s-.73,3.37-3.05,3c-3-.51-3.52,1.12-3.19,3.53.29,2.18-.68,2.89-2.8,2.81-2-.07-3.71-.11-3.36-2.76.38-2.9-.85-4-3.67-3.57-2.47.38-2.55-1.15-2.53-3s0-3.41,2.48-3.08c2.82.37,4.09-.78,3.72-3.67C27.35,186.51,29.11,186.43,31.07,186.67Z"/><path d="M111,87.82c-.09-3.61,2.82-2.7,4.17-2.89,3.1-.45,2.14,2.73,2.36,4.12.46,2.84-2.37,2-3.84,2.27C110.12,92,112.16,88.59,111,87.82Z"/><path d="M105.42,90.91c.36,3.6-2.47,2.77-4,3-3.09.47-2.28-2.44-2.47-3.93-.42-3.21,2.69-2.27,4.11-2.49C105.8,87.06,104.68,89.91,105.42,90.91Z"/></svg>