<svg id="Layer_1" data-name="Layer 1" xmlns="http://www.w3.org/2000/svg" fill="#286675" viewBox="0 0 253.86 238.27"><path d="M175.26,224.2H150.84c-2.58,0-4-1.11-4-3.08s1.41-3.06,4-3.06h47.61c3.11,0,3.81-.65,3.56-3.74-.89-11-1.87-21.93-2.79-32.89-.74-8.78-1.42-17.57-2.17-26.35-.88-10.28-1.81-20.56-2.69-30.84-.76-8.78-1.46-17.57-2.22-26.35-.77-9.06-1.61-18.11-2.36-27.16a2.55,2.55,0,0,0-2.92-2.67c-8.55,0-17.1,0-25.65,0-1.12,0-1.68.3-1.52,1.49a5.06,5.06,0,0,1,0,1.23c-.31,2.52.24,4.23,2.81,5.68,3.9,2.2,5.24,7.3,3.77,11.56a10.25,10.25,0,0,1-19.67-1c-1-4.62.93-9.31,5-11.27,1.76-.83,1.94-1.88,1.91-3.48-.07-4.19,0-4.19-4.16-4.19-15.66,0-31.33,0-47-.06-1.63,0-2.49.32-2.18,2.12a4.6,4.6,0,0,1,0,1.23c-.24,2.17.19,3.6,2.51,4.8,4,2,5.58,7.09,4.31,11.36a10.26,10.26,0,0,1-19.77-.24c-1.19-4.19.52-9.09,4.4-11.17,2-1.1,2.51-2.35,2.43-4.45-.16-3.64-.05-3.61-3.73-3.6-7.52,0-15,0-22.57,0-3.12,0-3.6.31-3.89,3.4-.7,7.28-1.28,14.57-1.88,21.86-.18,2.13-1.23,3.46-2.94,3.6a3,3,0,0,1-3.22-3.38c.22-4,.57-7.91.9-11.85s.72-7.9,1.11-11.84c.47-4.68,3.62-7.81,8.36-7.92,6.63-.14,13.27,0,19.9,0,2.06,0,4.11-.09,6.16,0,1.5.08,1.82-.51,1.79-1.89-.08-4.24,0-8.48,0-12.72a32.91,32.91,0,0,1,35-33.21c15.35.78,28.6,13.32,30.35,28.69.65,5.66.25,11.34.27,17,0,1.75.53,2.15,2.2,2.13,8.14-.08,16.28,0,24.42,0,5.85,0,9.1,2.73,9.65,8.56.88,9.32,1.6,18.65,2.41,28,.9,10.35,1.85,20.69,2.73,31s1.72,21,2.61,31.46c.88,10.28,1.83,20.56,2.71,30.84.67,7.76,1.36,15.52,1.88,23.29.35,5.23-3.51,9.13-8.81,9.14C191.41,224.22,183.33,224.2,175.26,224.2ZM127,61.88c8.27,0,16.54,0,24.8,0,1.41,0,1.94-.39,1.86-1.85-.12-2.25,0-4.5,0-6.76,0-4,.28-7.94-.59-11.84a26.66,26.66,0,0,0-31-20.81c-10.86,1.83-20.1,11.56-21.4,22.49-.66,5.51-.11,11-.37,16.58-.08,1.67.38,2.22,2.13,2.2C110.56,61.83,118.76,61.88,127,61.88ZM97.23,80.55a4.11,4.11,0,0,0,0,8.21,4.11,4.11,0,1,0,0-8.21Zm63.42,4.14a4,4,0,0,0-4.1-4.14,4.11,4.11,0,1,0,.13,8.21A4,4,0,0,0,160.65,84.69Z"/><path d="M94.4,224.2H54.81c-6,0-9.71-3.89-9.22-9.93C46.77,200,48,185.69,49.25,171.4c1-12,2-24,3-36q1.15-13.47,2.4-26.94c.21-2.3,1.43-3.47,3.3-3.34s3,1.69,2.82,4q-2,22.46-3.94,44.91c-1,12-2,24-3,36-.69,8.16-1.41,16.33-2.07,24.5-.23,2.77.56,3.54,3.37,3.54h78.78a12.54,12.54,0,0,1,1.84,0,3.06,3.06,0,0,1,.08,6.08,9.42,9.42,0,0,1-1.84,0Z"/><path d="M127.31,105.09a6.32,6.32,0,0,1,5.6,3.72c1.15,2.17,2.31,4.35,3.25,6.6a3.25,3.25,0,0,0,3.12,2.1c2.31.24,4.6.6,6.89,1a6.4,6.4,0,0,1,5.57,4.77,6.63,6.63,0,0,1-2,6.9c-1.72,1.66-3.39,3.37-5.16,5a2.69,2.69,0,0,0-1,3c.61,2.44,1,5,1.32,7.45a6.41,6.41,0,0,1-2.61,6.48,6.22,6.22,0,0,1-6.76.69c-2.46-1.17-4.87-2.45-7.26-3.77a2.37,2.37,0,0,0-2.63,0c-2.2,1.23-4.47,2.34-6.71,3.5a6.44,6.44,0,0,1-7.47-.52,6.52,6.52,0,0,1-2.4-6.93c.49-2.47.84-5,1.35-7.45a2.1,2.1,0,0,0-.81-2.13c-1.79-1.7-3.52-3.44-5.3-5.14-2.11-2-3-4.37-2.13-7.22s3-4.28,5.87-4.71c2.29-.35,4.59-.67,6.89-.92a2.84,2.84,0,0,0,2.64-1.84c1-2.3,2.17-4.55,3.35-6.78A6.61,6.61,0,0,1,127.31,105.09Zm-12.17,41c-.24,1.26.39,1.28,1.25.83,2.37-1.21,4.73-2.42,7.07-3.7a6.74,6.74,0,0,1,6.82-.06c2.28,1.23,4.59,2.42,6.88,3.62.42.22.85.57,1.33.29s.24-.85.16-1.3c-.4-2.42-.74-4.85-1.25-7.25a7.08,7.08,0,0,1,2.19-7.06c1.82-1.75,3.64-3.51,5.44-5.28.33-.32.86-.62.65-1.17s-.79-.44-1.25-.51c-2.57-.38-5.12-.8-7.69-1.14a6.82,6.82,0,0,1-5.53-4c-1-2.15-2.06-4.31-3.16-6.42-.29-.56-.32-1.52-1.19-1.48-.7,0-.77.88-1,1.4-1.12,2.19-2.18,4.4-3.26,6.6a6.66,6.66,0,0,1-5.38,3.91c-2.63.36-5.26.79-7.89,1.17-.4.06-.88,0-1.09.43-.31.58.23.87.55,1.17,1.9,1.87,3.83,3.71,5.72,5.58a7,7,0,0,1,2,6.75C116,140.94,115.58,143.5,115.14,146.05Z"/><path d="M114.48,185.66a3,3,0,0,1-2.66,3.28,2.9,2.9,0,0,1-3.41-2.71,54.72,54.72,0,0,0-1.5-8c-1.42-4.54-3.67-8.47-7.71-11.22a3,3,0,0,1-1-4.28,3.09,3.09,0,0,1,4.33-.84,20.14,20.14,0,0,1,6.7,6.79A35.16,35.16,0,0,1,114.48,185.66Z"/><path d="M139.36,185.52c.6-7.43,2.63-14.31,7.66-20.05a16.34,16.34,0,0,1,4.38-3.65,3,3,0,0,1,4.28,1,3,3,0,0,1-1,4.13c-5.74,4-7.87,9.85-8.87,16.36-.16,1-.21,2-.4,3a2.94,2.94,0,0,1-3.53,2.56A3.07,3.07,0,0,1,139.36,185.52Z"/><path d="M130,173.91c0,3.89.05,7.78,0,11.67-.05,2.47-1.67,3.83-3.81,3.31-1.88-.46-2.3-1.92-2.3-3.62q0-8,0-16c0-2.05,0-4.09,0-6.14,0-2.9,1.06-4.44,3.05-4.48s3.14,1.51,3.15,4.38c0,3.61,0,7.23,0,10.85Z"/></svg>