<svg width="20" height="20" viewBox="0 0 20 20" fill="none" xmlns="http://www.w3.org/2000/svg">
<path d="M10 0.015625C11.375 0.015625 12.6562 0.25 13.8438 0.71875C15.0625 1.1875 16.125 1.82813 17.0312 2.64062C17.9688 3.45312 18.6875 4.40625 19.1875 5.5C19.7188 6.59375 19.9844 7.76562 19.9844 9.01562C19.9844 10.1094 19.7188 11.1094 19.1875 12.0156C18.6562 12.9219 17.9375 13.6562 17.0312 14.2188C16.125 14.75 15.1094 15.0156 13.9844 15.0156H12.25C12.0938 15.0156 11.9688 15.0625 11.875 15.1562C11.7812 15.25 11.7344 15.3594 11.7344 15.4844C11.7344 15.6094 11.7812 15.7188 11.875 15.8125C12.2812 16.3125 12.4844 16.875 12.4844 17.5C12.4844 18.1875 12.2344 18.7812 11.7344 19.2812C11.2656 19.75 10.6875 19.9844 10 19.9844C8.625 19.9844 7.32812 19.7344 6.10938 19.2344C4.92188 18.7031 3.85938 17.9844 2.92188 17.0781C2.01562 16.1406 1.29688 15.0781 0.765625 13.8906C0.265625 12.6719 0.015625 11.375 0.015625 10C0.015625 8.625 0.265625 7.34375 0.765625 6.15625C1.29688 4.9375 2.01562 3.875 2.92188 2.96875C3.85938 2.03125 4.92188 1.3125 6.10938 0.8125C7.32812 0.28125 8.625 0.015625 10 0.015625ZM15.4844 10.9844C15.9219 10.9844 16.2812 10.8438 16.5625 10.5625C16.8438 10.2812 16.9844 9.92188 16.9844 9.48438C16.9844 9.07812 16.8438 8.73438 16.5625 8.45312C16.2812 8.14062 15.9219 7.98438 15.4844 7.98438C15.0781 7.98438 14.7188 8.14062 14.4062 8.45312C14.125 8.73438 13.9844 9.07812 13.9844 9.48438C13.9844 9.92188 14.125 10.2812 14.4062 10.5625C14.7188 10.8438 15.0781 10.9844 15.4844 10.9844ZM12.4844 7C12.9219 7 13.2812 6.85938 13.5625 6.57812C13.8438 6.26562 13.9844 5.90625 13.9844 5.5C13.9844 5.09375 13.8438 4.75 13.5625 4.46875C13.2812 4.15625 12.9219 4 12.4844 4C12.0781 4 11.7188 4.15625 11.4062 4.46875C11.125 4.75 10.9844 5.09375 10.9844 5.5C10.9844 5.90625 11.125 6.26562 11.4062 6.57812C11.7188 6.85938 12.0781 7 12.4844 7ZM3.01562 9.48438C3.01562 9.92188 3.15625 10.2812 3.4375 10.5625C3.71875 10.8438 4.07812 10.9844 4.51562 10.9844C4.92188 10.9844 5.26562 10.8438 5.54688 10.5625C5.85938 10.2812 6.01562 9.92188 6.01562 9.48438C6.01562 9.07812 5.85938 8.73438 5.54688 8.45312C5.26562 8.14062 4.92188 7.98438 4.51562 7.98438C4.07812 7.98438 3.71875 8.14062 3.4375 8.45312C3.15625 8.73438 3.01562 9.07812 3.01562 9.48438ZM9.01562 5.5C9.01562 5.09375 8.85938 4.75 8.54688 4.46875C8.26562 4.15625 7.92188 4 7.51562 4C7.07812 4 6.71875 4.15625 6.4375 4.46875C6.15625 4.75 6.01562 5.09375 6.01562 5.5C6.01562 5.90625 6.15625 6.26562 6.4375 6.57812C6.71875 6.85938 7.07812 7 7.51562 7C7.92188 7 8.26562 6.85938 8.54688 6.57812C8.85938 6.26562 9.01562 5.90625 9.01562 5.5Z" fill="white"/>
</svg>
