<svg width="26" height="26" viewBox="0 0 26 26" fill="none" xmlns="http://www.w3.org/2000/svg">
<path d="M4.79141 2.94447C6.47215 1.55819 8.37815 0.657112 10.5094 0.24123C12.5887 -0.157326 14.6506 -0.0620193 16.6952 0.527149C18.7918 1.15097 20.6285 2.24267 22.2053 3.80223C23.4356 5.04988 24.3799 6.48814 25.0383 8.11702C25.6794 9.67658 26 11.3055 26 13.0036C26 14.7018 25.6794 16.3307 25.0383 17.8903C24.3799 19.5192 23.4312 20.9531 22.1923 22.1921C20.9534 23.4311 19.5196 24.3798 17.8908 25.0383C16.3314 25.6794 14.7026 26 13.0045 26C11.3065 26 9.6777 25.6794 8.11824 25.0383C6.48948 24.3798 5.05132 23.4354 3.80375 22.2051C2.19231 20.5762 1.08337 18.6701 0.476913 16.4867C-0.112215 14.3726 -0.155533 12.2412 0.346958 10.0925L0.424931 9.70257L2.94605 10.3524C2.47821 12.1199 2.47821 13.8787 2.94605 15.6289C3.41389 17.4484 4.31491 19.0253 5.64911 20.3596C6.98331 21.6939 8.56009 22.595 10.3795 23.0628C12.1295 23.5134 13.8796 23.5134 15.6296 23.0628C17.449 22.595 19.0258 21.6939 20.36 20.3596C21.6942 19.0253 22.5952 17.4484 23.063 15.6289C23.5135 13.8787 23.5135 12.1286 23.063 10.3784C22.5952 8.5589 21.6942 6.982 20.36 5.64771C19.1644 4.45205 17.7609 3.60295 16.1494 3.10043C14.59 2.5979 12.9959 2.4766 11.3671 2.73653C9.73835 2.99646 8.25686 3.61162 6.92266 4.58201L6.63676 4.78995L7.9623 6.11558L1.98439 7.49319L3.36191 1.51487L4.79141 2.94447ZM14.3041 5.20584V7.80511H17.5529V10.4044H10.4054C10.2322 10.4044 10.0806 10.4694 9.9506 10.5993C9.82065 10.7293 9.75567 10.8766 9.75567 11.0412C9.75567 11.2058 9.80765 11.3488 9.91162 11.4701C10.0156 11.5914 10.1455 11.6694 10.3015 11.704H10.4054H15.6036C16.1928 11.704 16.7342 11.8513 17.2281 12.1459C17.7219 12.4405 18.1161 12.8347 18.4107 13.3286C18.7052 13.8224 18.8525 14.3639 18.8525 14.9531C18.8525 15.5423 18.7052 16.0838 18.4107 16.5776C18.1161 17.0715 17.7219 17.4657 17.2281 17.7603C16.7342 18.0549 16.1928 18.2022 15.6036 18.2022H14.3041V20.8015H11.705V18.2022H8.45613V15.6029H15.6036C15.7769 15.6029 15.9285 15.5379 16.0585 15.408C16.1884 15.278 16.2534 15.1307 16.2534 14.9661C16.2534 14.8015 16.2014 14.6585 16.0975 14.5372C15.9935 14.4159 15.8635 14.3379 15.7076 14.3033H15.6036H10.4054C9.81632 14.3033 9.27484 14.156 8.78101 13.8614C8.28719 13.5668 7.89299 13.1726 7.59843 12.6787C7.30386 12.1849 7.15658 11.6434 7.15658 11.0542C7.15658 10.465 7.30386 9.92351 7.59843 9.42965C7.89299 8.93579 8.28719 8.54157 8.78101 8.24698C9.27484 7.9524 9.81632 7.80511 10.4054 7.80511H11.705V5.20584H14.3041Z" fill="#176060"/>
</svg>
