<svg width="26" height="27" viewBox="0 0 26 27" fill="none" xmlns="http://www.w3.org/2000/svg">
<path d="M13 26.0518C11.232 26.0518 9.542 25.7254 7.93 25.0727C6.38733 24.4368 5.01367 23.5372 3.809 22.3741C2.60433 21.211 1.67267 19.8847 1.014 18.3952C0.338 16.8388 0 15.2071 0 13.5C0 11.793 0.338 10.1613 1.014 8.60486C1.67267 7.11539 2.60433 5.78909 3.809 4.62596C5.01367 3.46284 6.38733 2.5633 7.93 1.92734C9.542 1.27465 11.232 0.948307 13 0.948307C14.768 0.948307 16.458 1.27465 18.07 1.92734C19.6127 2.5633 20.9863 3.46284 22.191 4.62596C23.3957 5.78909 24.3273 7.11539 24.986 8.60486C25.662 10.1613 26 11.793 26 13.5C26 15.2071 25.662 16.8388 24.986 18.3952C24.3273 19.8847 23.3957 21.211 22.191 22.3741C20.9863 23.5372 19.6127 24.4368 18.07 25.0727C16.458 25.7254 14.768 26.0518 13 26.0518ZM13 23.5414C14.8893 23.5414 16.64 23.0812 18.252 22.1607C19.812 21.2737 21.0513 20.0771 21.97 18.5709C22.9233 17.0145 23.4 15.3242 23.4 13.5C23.4 11.6758 22.9233 9.98555 21.97 8.42913C21.0513 6.92293 19.812 5.72633 18.252 4.83934C16.64 3.91888 14.8893 3.45865 13 3.45865C11.1107 3.45865 9.36 3.91888 7.748 4.83934C6.188 5.72633 4.94867 6.92293 4.03 8.42913C3.07667 9.98555 2.6 11.6758 2.6 13.5C2.6 15.3242 3.07667 17.0145 4.03 18.5709C4.94867 20.0771 6.188 21.2737 7.748 22.1607C9.36 23.0812 11.1107 23.5414 13 23.5414ZM6.5 12.8724L18.2 8.47934L13.65 19.7759L11.7 14.7552L6.5 12.8724Z" fill="#176060"/>
</svg>
