<svg width="26" height="27" viewBox="0 0 26 27" fill="none" xmlns="http://www.w3.org/2000/svg">
<path d="M0 26.9333C0 25.074 0.453968 23.3511 1.3619 21.7647C2.23683 20.2295 3.41714 19.0098 4.90286 18.1057C6.4381 17.1675 8.1054 16.6984 9.90476 16.6984C11.7041 16.6984 13.3714 17.1675 14.9067 18.1057C16.3924 19.0098 17.5727 20.2295 18.4476 21.7647C19.3556 23.3511 19.8095 25.074 19.8095 26.9333H17.3333C17.3333 25.5516 16.9949 24.2637 16.3181 23.0697C15.6578 21.9097 14.7663 20.9886 13.6438 20.3062C12.4883 19.6069 11.2419 19.2572 9.90476 19.2572C8.56762 19.2572 7.32127 19.6069 6.16571 20.3062C5.04317 20.9886 4.15175 21.9097 3.49143 23.0697C2.8146 24.2637 2.47619 25.5516 2.47619 26.9333H0ZM9.90476 15.4191C8.55111 15.4191 7.30476 15.0694 6.16571 14.37C5.04317 13.6877 4.15175 12.7665 3.49143 11.6066C2.8146 10.4295 2.47619 9.14165 2.47619 7.74287C2.47619 6.3441 2.8146 5.05621 3.49143 3.87919C4.15175 2.71923 5.04317 1.79809 6.16571 1.11576C7.30476 0.416378 8.55111 0.0666847 9.90476 0.0666847C11.2584 0.0666847 12.5048 0.416378 13.6438 1.11576C14.7663 1.79809 15.6578 2.71923 16.3181 3.87919C16.9949 5.05621 17.3333 6.3441 17.3333 7.74287C17.3333 9.14165 16.9949 10.4295 16.3181 11.6066C15.6578 12.7665 14.7663 13.6877 13.6438 14.37C12.5048 15.0694 11.2584 15.4191 9.90476 15.4191ZM9.90476 12.8603C10.7962 12.8603 11.6216 12.63 12.381 12.1695C13.1403 11.7089 13.7429 11.0863 14.1886 10.3016C14.6343 9.51693 14.8571 8.66402 14.8571 7.74287C14.8571 6.82173 14.6343 5.96882 14.1886 5.18414C13.7429 4.39947 13.1403 3.77684 12.381 3.31627C11.6216 2.8557 10.7962 2.62541 9.90476 2.62541C9.01333 2.62541 8.18794 2.8557 7.42857 3.31627C6.66921 3.77684 6.06667 4.39947 5.62095 5.18414C5.17524 5.96882 4.95238 6.82173 4.95238 7.74287C4.95238 8.66402 5.17524 9.51693 5.62095 10.3016C6.06667 11.0863 6.66921 11.7089 7.42857 12.1695C8.18794 12.63 9.01333 12.8603 9.90476 12.8603ZM20.1562 17.594C21.3117 18.1228 22.3311 18.8606 23.2143 19.8073C24.0975 20.754 24.7784 21.8244 25.2571 23.0185C25.7524 24.2637 26 25.5687 26 26.9333H23.5238C23.5238 25.3981 23.1194 23.9908 22.3105 22.7114C21.5181 21.4662 20.4616 20.5365 19.141 19.9224L20.1562 17.594ZM19.3143 3.16275C20.5689 3.69155 21.5841 4.54446 22.36 5.72148C23.1359 6.89849 23.5238 8.21198 23.5238 9.66192C23.5238 10.8731 23.2514 11.9946 22.7067 13.0267C22.1619 14.0587 21.4149 14.8988 20.4657 15.547C19.5165 16.1952 18.4724 16.5705 17.3333 16.6728V14.0885C18.0267 13.9862 18.6581 13.726 19.2276 13.3081C19.7971 12.8902 20.2429 12.3614 20.5648 11.7217C20.8867 11.082 21.0476 10.3954 21.0476 9.66192C21.0476 8.79195 20.8248 7.99875 20.379 7.2823C19.9333 6.56586 19.3473 6.02 18.621 5.64472L19.3143 3.16275Z" fill="#176060"/>
</svg>
