<svg width="26" height="28" viewBox="0 0 26 28" fill="none" xmlns="http://www.w3.org/2000/svg">
<path d="M10.9474 0.63158L20.9368 3.75158C21.2288 3.84281 21.4614 4.00702 21.6347 4.24421C21.8081 4.48141 21.8947 4.75509 21.8947 5.06527V7.47369H24.6316C25.0147 7.47369 25.3386 7.60597 25.6032 7.87053C25.8677 8.13509 26 8.45895 26 8.84211V19.7895C26 20.1726 25.8677 20.4965 25.6032 20.7611C25.3386 21.0256 25.0147 21.1579 24.6316 21.1579H20.2253C19.6779 21.8695 19.0393 22.4807 18.3095 22.9916L10.9474 28L3.58526 22.9916C2.47228 22.2253 1.59649 21.24 0.957895 20.0358C0.319298 18.8316 0 17.5544 0 16.2042V5.06527C0 4.75509 0.0866667 4.48141 0.26 4.24421C0.433333 4.00702 0.665965 3.84281 0.957895 3.75158L10.9474 0.63158ZM10.9474 3.50526L2.73684 6.05053V16.2042C2.73684 17.0435 2.92386 17.8463 3.29789 18.6126C3.67193 19.3789 4.19649 20.0175 4.87158 20.5284L5.11789 20.72L10.9474 24.6884L16.12 21.1579H9.57895C9.19579 21.1579 8.87193 21.0256 8.60737 20.7611C8.34281 20.4965 8.21053 20.1726 8.21053 19.7895V8.84211C8.21053 8.45895 8.34281 8.13509 8.60737 7.87053C8.87193 7.60597 9.19579 7.47369 9.57895 7.47369H19.1579V6.05053L10.9474 3.50526ZM10.9474 14.3158V18.4211H23.2632V14.3158H10.9474ZM10.9474 11.5789H23.2632V10.2105H10.9474V11.5789Z" fill="#176060"/>
</svg>
