<svg width="26" height="32" viewBox="0 0 26 32" fill="none" xmlns="http://www.w3.org/2000/svg">
<path d="M13 5.34058e-05L24.8733 2.62894C25.2007 2.70598 25.4704 2.87931 25.6822 3.14894C25.8941 3.41857 26 3.71709 26 4.0445V18.4601C26 19.9238 25.6581 21.2912 24.9744 22.5623C24.2907 23.8334 23.3422 24.8734 22.1289 25.6823L13 31.7778L3.87111 25.6823C2.65778 24.8734 1.70926 23.8334 1.02556 22.5623C0.341852 21.2912 0 19.9238 0 18.4601V4.0445C0 3.71709 0.105926 3.41857 0.317778 3.14894C0.52963 2.87931 0.799259 2.70598 1.12667 2.62894L13 5.34058e-05ZM13 2.94672L2.88889 5.20005V18.4601C2.88889 19.4423 3.11519 20.3571 3.56778 21.2045C4.02037 22.0519 4.65111 22.7452 5.46 23.2845L13 28.3112L20.54 23.2845C21.3489 22.7452 21.9796 22.0519 22.4322 21.2045C22.8848 20.3571 23.1111 19.4423 23.1111 18.4601V5.20005L13 2.94672ZM19.4422 10.4289L21.4644 12.4801L12.2778 21.6667L6.15333 15.5423L8.20444 13.4912L12.2778 17.5934L19.4422 10.4289Z" fill="#176060"/>
</svg>
