<svg width="26" height="25" viewBox="0 0 26 25" fill="none" xmlns="http://www.w3.org/2000/svg">
<path d="M10.166 3.43484L7.566 6.02488H2.6V21.5651H23.4V6.02488H18.434L15.834 3.43484H10.166ZM9.1 0.844805H16.9L19.5 3.43484H24.7C25.064 3.43484 25.3717 3.56003 25.623 3.8104C25.8743 4.06077 26 4.36726 26 4.72986V22.8601C26 23.2227 25.8743 23.5292 25.623 23.7796C25.3717 24.03 25.064 24.1552 24.7 24.1552H1.3C0.936 24.1552 0.628333 24.03 0.377 23.7796C0.125667 23.5292 0 23.2227 0 22.8601V4.72986C0 4.36726 0.125667 4.06077 0.377 3.8104C0.628333 3.56003 0.936 3.43484 1.3 3.43484H6.5L9.1 0.844805ZM13 20.2701C11.7 20.2701 10.504 19.9507 9.412 19.3118C8.32 18.6729 7.45333 17.8096 6.812 16.7217C6.17067 15.6339 5.85 14.4425 5.85 13.1475C5.85 11.8525 6.17067 10.6611 6.812 9.57323C7.45333 8.48542 8.32 7.62207 9.412 6.9832C10.504 6.34432 11.7 6.02488 13 6.02488C14.3 6.02488 15.496 6.34432 16.588 6.9832C17.68 7.62207 18.5467 8.48542 19.188 9.57323C19.8293 10.6611 20.15 11.8525 20.15 13.1475C20.15 14.4425 19.8293 15.6339 19.188 16.7217C18.5467 17.8096 17.68 18.6729 16.588 19.3118C15.496 19.9507 14.3 20.2701 13 20.2701ZM13 17.6801C13.832 17.6801 14.5947 17.4772 15.288 17.0714C15.9813 16.6656 16.5317 16.1174 16.939 15.4267C17.3463 14.736 17.55 13.9763 17.55 13.1475C17.55 12.3187 17.3463 11.5589 16.939 10.8683C16.5317 10.1776 15.9813 9.62935 15.288 9.22358C14.5947 8.81781 13.832 8.61492 13 8.61492C12.168 8.61492 11.4053 8.81781 10.712 9.22358C10.0187 9.62935 9.46833 10.1776 9.061 10.8683C8.65367 11.5589 8.45 12.3187 8.45 13.1475C8.45 13.9763 8.65367 14.736 9.061 15.4267C9.46833 16.1174 10.0187 16.6656 10.712 17.0714C11.4053 17.4772 12.168 17.6801 13 17.6801Z" fill="#176060"/>
</svg>
