<svg width="26" height="26" viewBox="0 0 26 26" fill="none" xmlns="http://www.w3.org/2000/svg">
<path d="M13 26C11.232 26 9.542 25.662 7.93 24.986C6.38733 24.3273 5.01367 23.3957 3.809 22.191C2.60433 20.9863 1.67267 19.6127 1.014 18.07C0.338 16.458 0 14.768 0 13C0 11.232 0.338 9.542 1.014 7.93C1.67267 6.38733 2.60433 5.01367 3.809 3.809C5.01367 2.60433 6.38733 1.67267 7.93 1.014C9.542 0.337999 11.232 0 13 0C14.768 0 16.458 0.337999 18.07 1.014C19.6127 1.67267 20.9863 2.60433 22.191 3.809C23.3957 5.01367 24.3273 6.38733 24.986 7.93C25.662 9.542 26 11.232 26 13C26 14.768 25.662 16.458 24.986 18.07C24.3273 19.6127 23.3957 20.9863 22.191 22.191C20.9863 23.3957 19.6127 24.3273 18.07 24.986C16.458 25.662 14.768 26 13 26ZM13 23.4C14.8893 23.4 16.64 22.9233 18.252 21.97C19.812 21.0513 21.0513 19.812 21.97 18.252C22.9233 16.64 23.4 14.8893 23.4 13C23.4 11.1107 22.9233 9.36 21.97 7.748C21.0513 6.188 19.812 4.94867 18.252 4.03C16.64 3.07667 14.8893 2.6 13 2.6C11.1107 2.6 9.36 3.07667 7.748 4.03C6.188 4.94867 4.94867 6.188 4.03 7.748C3.07667 9.36 2.6 11.1107 2.6 13C2.6 14.8893 3.07667 16.64 4.03 18.252C4.94867 19.812 6.188 21.0513 7.748 21.97C9.36 22.9233 11.1107 23.4 13 23.4ZM8.45 15.6H15.6C15.7733 15.6 15.925 15.535 16.055 15.405C16.185 15.275 16.25 15.1233 16.25 14.95C16.25 14.7767 16.185 14.625 16.055 14.495C15.925 14.365 15.7733 14.3 15.6 14.3H10.4C9.81067 14.3 9.269 14.1527 8.775 13.858C8.281 13.5633 7.88667 13.169 7.592 12.675C7.29733 12.181 7.15 11.6393 7.15 11.05C7.15 10.4607 7.29733 9.919 7.592 9.425C7.88667 8.931 8.281 8.53667 8.775 8.242C9.269 7.94733 9.81067 7.8 10.4 7.8H11.7V5.2H14.3V7.8H17.55V10.4H10.4C10.2267 10.4 10.075 10.465 9.945 10.595C9.815 10.725 9.75 10.8767 9.75 11.05C9.75 11.2233 9.815 11.375 9.945 11.505C10.075 11.635 10.2267 11.7 10.4 11.7H15.6C16.1893 11.7 16.731 11.8473 17.225 12.142C17.719 12.4367 18.1133 12.831 18.408 13.325C18.7027 13.819 18.85 14.3607 18.85 14.95C18.85 15.5393 18.7027 16.081 18.408 16.575C18.1133 17.069 17.719 17.4633 17.225 17.758C16.731 18.0527 16.1893 18.2 15.6 18.2H14.3V20.8H11.7V18.2H8.45V15.6Z" fill="#176060"/>
</svg>
